<?xml version="1.0" standalone="no"?>
<!DOCTYPE svg PUBLIC "-//W3C//DTD SVG 20010904//EN"
 "http://www.w3.org/TR/2001/REC-SVG-20010904/DTD/svg10.dtd">
<svg version="1.0" xmlns="http://www.w3.org/2000/svg"
 width="1500.000000pt" height="1500.000000pt" viewBox="0 0 1500.000000 1500.000000"
 preserveAspectRatio="xMidYMid meet">
<metadata>
Created by potrace 1.14, written by Peter Selinger 2001-2017
</metadata>
<g transform="translate(0.000000,1500.000000) scale(0.100000,-0.100000)"
fill="#000000" stroke="none">
<path d="M6430 9509 c-217 -25 -420 -85 -625 -183 -414 -198 -738 -518 -943
-931 -138 -277 -198 -512 -209 -820 -12 -340 53 -649 200 -950 297 -605 836
-1008 1502 -1121 139 -24 481 -24 620 0 217 37 396 95 588 192 556 279 953
795 1083 1406 35 168 45 503 20 678 -98 667 -515 1239 -1121 1536 -214 104
-435 169 -657 193 -112 13 -349 12 -458 0z m410 -1023 c302 -64 585 -300 707
-589 59 -141 77 -232 77 -397 0 -116 -4 -163 -22 -233 -45 -178 -128 -331
-251 -460 -260 -273 -612 -376 -941 -275 -150 46 -325 159 -437 281 -221 242
-315 593 -243 910 84 376 386 681 755 762 80 18 274 18 355 1z"/>
<path d="M11604 9491 c-75 -6 -121 -29 -162 -82 -11 -13 -227 -513 -481 -1109
-282 -662 -470 -1092 -482 -1102 -27 -23 -71 -23 -92 0 -9 10 -233 501 -497
1091 -264 590 -489 1086 -501 1102 -11 16 -40 40 -63 54 l-43 25 -471 0 c-477
0 -511 -2 -538 -38 -38 -50 -54 -12 812 -1924 602 -1330 834 -1832 857 -1856
18 -19 50 -43 72 -54 39 -21 48 -21 563 -15 l524 6 43 26 c59 34 70 52 164
260 90 199 124 243 203 263 28 7 252 12 630 13 l587 1 45 -26 c61 -36 82 -66
160 -241 84 -187 104 -217 161 -251 l46 -27 501 2 c548 2 553 3 582 60 24 45
20 74 -20 164 -20 45 -378 860 -796 1812 -418 952 -767 1743 -776 1758 -10 16
-37 44 -61 63 l-44 34 -426 -2 c-234 -1 -458 -4 -497 -7z m581 -1753 c219
-513 255 -605 250 -625 -12 -48 -31 -51 -327 -55 -274 -3 -278 -3 -299 19 -13
13 -22 33 -21 50 1 24 240 632 278 704 33 65 60 44 119 -93z"/>
<path d="M3453 9410 c-70 -43 -66 40 -62 -1066 4 -933 3 -997 -13 -1008 -13
-8 -24 -6 -45 10 -15 12 -343 458 -729 992 -385 535 -711 984 -725 998 -13 15
-46 37 -74 50 l-50 24 -440 0 c-489 0 -489 0 -528 -67 -18 -31 -18 -86 -2
-1889 17 -2018 12 -1892 71 -1931 23 -15 68 -16 462 -14 483 3 476 2 514 68
18 29 18 73 10 1004 -7 711 -6 981 2 999 16 35 48 37 79 3 15 -15 345 -469
735 -1007 702 -971 709 -980 768 -1013 l59 -33 440 0 c419 0 442 1 472 20 18
10 40 31 49 45 16 24 16 141 1 1884 -17 2026 -12 1896 -71 1935 -23 14 -73 16
-458 16 -412 0 -435 -1 -465 -20z"/>
</g>
</svg>
